<svg width="38" height="8" viewBox="0 0 38 8" fill="none" xmlns="http://www.w3.org/2000/svg">
<path d="M2.04297 7.0625C1.38672 7.0625 0.920573 6.89453 0.644531 6.55859C0.371094 6.22266 0.234375 5.72917 0.234375 5.07812V3.27344C0.234375 2.78385 0.286458 2.3763 0.390625 2.05078C0.494792 1.72526 0.677083 1.48177 0.9375 1.32031C1.19792 1.15885 1.5599 1.07812 2.02344 1.07812C2.34635 1.07812 2.63542 1.13542 2.89062 1.25C3.14844 1.36458 3.35156 1.53255 3.5 1.75391C3.64844 1.97526 3.72266 2.24609 3.72266 2.56641V3.46094H2.29688V2.64062C2.29688 2.50521 2.27734 2.39193 2.23828 2.30078C2.19922 2.20703 2.11458 2.16016 1.98438 2.16016C1.75521 2.16016 1.64062 2.32292 1.64062 2.64844V5.48828C1.64062 5.60807 1.66667 5.71875 1.71875 5.82031C1.77083 5.91927 1.85677 5.96875 1.97656 5.96875C2.09896 5.96875 2.18359 5.92057 2.23047 5.82422C2.27995 5.72526 2.30469 5.61068 2.30469 5.48047V4.49609H3.72266V5.51953C3.72266 5.84245 3.64974 6.11979 3.50391 6.35156C3.36068 6.58073 3.16276 6.75651 2.91016 6.87891C2.65755 7.0013 2.36849 7.0625 2.04297 7.0625ZM3.81094 7V0.125H5.23281V7H3.81094ZM7.09844 7.0625C5.93177 7.0625 5.34844 6.45703 5.34844 5.24609V2.89453C5.34844 2.34245 5.50339 1.90234 5.81328 1.57422C6.12318 1.24349 6.55156 1.07812 7.09844 1.07812C7.64792 1.07812 8.0776 1.24349 8.3875 1.57422C8.6974 1.90234 8.85234 2.34245 8.85234 2.89453V5.24609C8.85234 6.45703 8.26771 7.0625 7.09844 7.0625ZM7.09844 5.98438C7.21562 5.98438 7.29896 5.94271 7.34844 5.85938C7.40052 5.77344 7.42656 5.66536 7.42656 5.53516V2.67188C7.42656 2.33073 7.31719 2.16016 7.09844 2.16016C6.87969 2.16016 6.77031 2.33073 6.77031 2.67188V5.53516C6.77031 5.66536 6.79505 5.77344 6.84453 5.85938C6.89661 5.94271 6.98125 5.98438 7.09844 5.98438ZM8.97188 7V1.14062H10.3703V1.88672C10.4224 1.66276 10.5188 1.47266 10.6594 1.31641C10.8026 1.15755 11.0005 1.07812 11.2531 1.07812C11.6594 1.07812 11.9536 1.20312 12.1359 1.45312C12.3208 1.70312 12.4133 2.04557 12.4133 2.48047V7H11.0344V2.625C11.0344 2.51042 11.0109 2.40495 10.9641 2.30859C10.9172 2.20964 10.8365 2.16016 10.7219 2.16016C10.6151 2.16016 10.5357 2.19792 10.4836 2.27344C10.4341 2.34635 10.4029 2.4388 10.3898 2.55078C10.3768 2.66016 10.3703 2.76953 10.3703 2.87891V7H8.97188ZM14.2047 7.0625C13.788 7.0625 13.456 6.98438 13.2086 6.82812C12.9612 6.67188 12.7841 6.44661 12.6773 6.15234C12.5706 5.85807 12.5172 5.50391 12.5172 5.08984V2.73438C12.5172 2.1901 12.6734 1.77865 12.9859 1.5C13.2984 1.21875 13.7281 1.07812 14.275 1.07812C15.4 1.07812 15.9625 1.63021 15.9625 2.73438V3.16016C15.9625 3.67578 15.9573 4.02214 15.9469 4.19922H13.9156V5.33203C13.9156 5.4362 13.9221 5.53906 13.9352 5.64062C13.9482 5.73958 13.9768 5.82161 14.0211 5.88672C14.068 5.95182 14.1422 5.98438 14.2437 5.98438C14.3896 5.98438 14.4807 5.92188 14.5172 5.79688C14.5536 5.66927 14.5719 5.50391 14.5719 5.30078V4.73828H15.9625V5.07031C15.9625 5.50781 15.9078 5.875 15.7984 6.17188C15.6917 6.46615 15.5094 6.6888 15.2516 6.83984C14.9964 6.98828 14.6474 7.0625 14.2047 7.0625ZM13.9078 3.50391H14.5719V2.71484C14.5719 2.50391 14.5458 2.35286 14.4937 2.26172C14.4417 2.16797 14.3635 2.12109 14.2594 2.12109C14.1474 2.12109 14.0602 2.16536 13.9977 2.25391C13.9378 2.34245 13.9078 2.49609 13.9078 2.71484V3.50391ZM17.2227 7.0625C16.9518 7.0625 16.737 7.01302 16.5781 6.91406C16.4193 6.8151 16.3008 6.67839 16.2227 6.50391C16.1445 6.32943 16.0924 6.125 16.0664 5.89062C16.043 5.65625 16.0312 5.40495 16.0312 5.13672V2.58984C16.0312 2.13932 16.1107 1.77474 16.2695 1.49609C16.431 1.21745 16.7031 1.07812 17.0859 1.07812C17.3698 1.07812 17.5872 1.13932 17.7383 1.26172C17.8919 1.38151 18.0104 1.54948 18.0938 1.76562V0.125H19.5156V7H18.0938V6.37891C18.0156 6.58984 17.9115 6.75651 17.7812 6.87891C17.6536 7.0013 17.4674 7.0625 17.2227 7.0625ZM17.7578 5.96875C17.8906 5.96875 17.9792 5.91536 18.0234 5.80859C18.0703 5.70182 18.0938 5.51042 18.0938 5.23438V2.76953C18.0938 2.63151 18.0729 2.49609 18.0312 2.36328C17.9922 2.22786 17.9036 2.16016 17.7656 2.16016C17.6146 2.16016 17.5195 2.22396 17.4805 2.35156C17.4414 2.47917 17.4219 2.61849 17.4219 2.76953V5.23438C17.4219 5.72396 17.5339 5.96875 17.7578 5.96875ZM20.4008 7L19.4594 1.14062H20.8617L21.1977 5.05469L21.5766 1.14062H22.975L22.018 7H20.4008ZM24.5828 7.0625C24.1661 7.0625 23.8341 6.98438 23.5867 6.82812C23.3393 6.67188 23.1622 6.44661 23.0555 6.15234C22.9487 5.85807 22.8953 5.50391 22.8953 5.08984V2.73438C22.8953 2.1901 23.0516 1.77865 23.3641 1.5C23.6766 1.21875 24.1063 1.07812 24.6531 1.07812C25.7781 1.07812 26.3406 1.63021 26.3406 2.73438V3.16016C26.3406 3.67578 26.3354 4.02214 26.325 4.19922H24.2938V5.33203C24.2938 5.4362 24.3003 5.53906 24.3133 5.64062C24.3263 5.73958 24.3549 5.82161 24.3992 5.88672C24.4461 5.95182 24.5203 5.98438 24.6219 5.98438C24.7677 5.98438 24.8589 5.92188 24.8953 5.79688C24.9318 5.66927 24.95 5.50391 24.95 5.30078V4.73828H26.3406V5.07031C26.3406 5.50781 26.2859 5.875 26.1766 6.17188C26.0698 6.46615 25.8875 6.6888 25.6297 6.83984C25.3745 6.98828 25.0255 7.0625 24.5828 7.0625ZM24.2859 3.50391H24.95V2.71484C24.95 2.50391 24.924 2.35286 24.8719 2.26172C24.8198 2.16797 24.7417 2.12109 24.6375 2.12109C24.5255 2.12109 24.4383 2.16536 24.3758 2.25391C24.3159 2.34245 24.2859 2.49609 24.2859 2.71484V3.50391ZM26.4484 7V1.14062H27.8703V1.79297C27.938 1.56641 28.0578 1.38932 28.2297 1.26172C28.4016 1.13411 28.6177 1.07031 28.8781 1.07031V2.23828C28.7635 2.23828 28.6268 2.2513 28.468 2.27734C28.3091 2.30078 28.1698 2.33464 28.05 2.37891C27.9302 2.42057 27.8703 2.46745 27.8703 2.51953V7H26.4484ZM30.4273 7.0625C29.2711 7.0625 28.693 6.47656 28.693 5.30469V4.83984H30.0992V5.52734C30.0992 5.66016 30.1253 5.76432 30.1773 5.83984C30.2294 5.91536 30.3128 5.95312 30.4273 5.95312C30.6305 5.95312 30.732 5.80078 30.732 5.49609C30.732 5.24089 30.6786 5.05078 30.5719 4.92578C30.4651 4.79818 30.3349 4.67578 30.1812 4.55859L29.4352 3.98438C29.2008 3.80208 29.0224 3.60938 28.9 3.40625C28.7776 3.20312 28.7164 2.92057 28.7164 2.55859C28.7164 2.22266 28.7958 1.94531 28.9547 1.72656C29.1161 1.50781 29.3284 1.34505 29.5914 1.23828C29.857 1.13151 30.1435 1.07812 30.4508 1.07812C31.5862 1.07812 32.1539 1.64453 32.1539 2.77734V2.88672H30.7086V2.66406C30.7086 2.54688 30.6878 2.43359 30.6461 2.32422C30.607 2.21484 30.5289 2.16016 30.4117 2.16016C30.2138 2.16016 30.1148 2.26432 30.1148 2.47266C30.1148 2.68359 30.1982 2.84896 30.3648 2.96875L31.232 3.60156C31.5029 3.79688 31.7294 4.02865 31.9117 4.29688C32.0966 4.5651 32.1891 4.92188 32.1891 5.36719C32.1891 5.91927 32.0315 6.33984 31.7164 6.62891C31.4039 6.91797 30.9742 7.0625 30.4273 7.0625ZM33.8594 7.0625C33.4427 7.0625 33.1107 6.98438 32.8633 6.82812C32.6159 6.67188 32.4388 6.44661 32.332 6.15234C32.2253 5.85807 32.1719 5.50391 32.1719 5.08984V2.73438C32.1719 2.1901 32.3281 1.77865 32.6406 1.5C32.9531 1.21875 33.3828 1.07812 33.9297 1.07812C35.0547 1.07812 35.6172 1.63021 35.6172 2.73438V3.16016C35.6172 3.67578 35.612 4.02214 35.6016 4.19922H33.5703V5.33203C33.5703 5.4362 33.5768 5.53906 33.5898 5.64062C33.6029 5.73958 33.6315 5.82161 33.6758 5.88672C33.7227 5.95182 33.7969 5.98438 33.8984 5.98438C34.0443 5.98438 34.1354 5.92188 34.1719 5.79688C34.2083 5.66927 34.2266 5.50391 34.2266 5.30078V4.73828H35.6172V5.07031C35.6172 5.50781 35.5625 5.875 35.4531 6.17188C35.3464 6.46615 35.1641 6.6888 34.9062 6.83984C34.651 6.98828 34.3021 7.0625 33.8594 7.0625ZM33.5625 3.50391H34.2266V2.71484C34.2266 2.50391 34.2005 2.35286 34.1484 2.26172C34.0964 2.16797 34.0182 2.12109 33.9141 2.12109C33.8021 2.12109 33.7148 2.16536 33.6523 2.25391C33.5924 2.34245 33.5625 2.49609 33.5625 2.71484V3.50391Z" fill="url(#paint0_linear_4_10)"/>
<circle cx="37" cy="6" r="1" fill="url(#paint1_linear_4_10)"/>
<defs>
<linearGradient id="paint0_linear_4_10" x1="18" y1="0" x2="18" y2="7" gradientUnits="userSpaceOnUse">
<stop stop-color="#F367E5"/>
<stop offset="1" stop-color="#B1009F"/>
</linearGradient>
<linearGradient id="paint1_linear_4_10" x1="37" y1="5" x2="37" y2="7" gradientUnits="userSpaceOnUse">
<stop stop-color="#F367E5"/>
<stop offset="1" stop-color="#B1009F"/>
</linearGradient>
</defs>
</svg>
