<svg width="288" height="512" viewBox="0 0 288 512" fill="none" xmlns="http://www.w3.org/2000/svg">
<path d="M9.37332 457.373L210.745 256L9.37332 54.6271C3.43236 48.6135 0.112183 40.4935 0.137843 32.0403C0.163503 23.5871 3.53291 15.4874 9.51028 9.51003C15.4876 3.53267 23.5873 0.163259 32.0406 0.137599C40.4938 0.111939 48.6138 3.43211 54.6273 9.37308L278.627 233.373C284.628 239.374 288 247.513 288 256C288 264.487 284.628 272.626 278.627 278.627L54.6273 502.627C48.6138 508.568 40.4938 511.888 32.0406 511.863C23.5873 511.837 15.4876 508.467 9.51028 502.49C3.53291 496.513 0.163503 488.413 0.137843 479.96C0.112183 471.507 3.43236 463.387 9.37332 457.373Z" fill="black"/>
</svg>
