<svg width="225" height="225" viewBox="0 0 225 225" fill="none" xmlns="http://www.w3.org/2000/svg">
<mask id="mask0_5_10" style="mask-type:luminance" maskUnits="userSpaceOnUse" x="0" y="0" width="225" height="225">
<path d="M0 0H225V225H0V0Z" fill="white"/>
</mask>
<g mask="url(#mask0_5_10)">
<path d="M140.625 9.375H37.5C27.1875 9.375 18.75 17.8125 18.75 28.125V150C18.75 155.156 22.9687 159.375 28.125 159.375C33.2813 159.375 37.5 155.156 37.5 150V37.5C37.5 32.3437 41.7187 28.125 46.875 28.125H140.625C145.781 28.125 150 23.9063 150 18.75C150 13.5937 145.781 9.375 140.625 9.375ZM178.125 46.875H75C64.6875 46.875 56.25 55.3125 56.25 65.625V196.875C56.25 207.188 64.6875 215.625 75 215.625H178.125C188.438 215.625 196.875 207.188 196.875 196.875V65.625C196.875 55.3125 188.438 46.875 178.125 46.875ZM168.75 196.875H84.375C79.2187 196.875 75 192.656 75 187.5V75C75 69.8437 79.2187 65.625 84.375 65.625H168.75C173.906 65.625 178.125 69.8437 178.125 75V187.5C178.125 192.656 173.906 196.875 168.75 196.875Z" fill="black"/>
</g>
</svg>
