<svg width="512" height="512" viewBox="0 0 512 512" fill="none" xmlns="http://www.w3.org/2000/svg">
<path d="M499.897 291.257C494.662 289.948 489.428 291.257 484.848 294.529C467.835 308.923 448.206 320.701 426.613 328.553C406.33 336.405 384.083 340.331 360.528 340.331C307.528 340.331 259.109 318.738 224.43 284.059C189.751 249.381 168.159 200.961 168.159 147.962C168.159 125.715 172.085 104.123 178.628 84.4934C185.826 63.5553 196.295 44.5801 210.035 28.2223C215.924 21.0248 214.615 10.5557 207.418 4.66691C202.838 1.39533 197.603 0.0867011 192.369 1.39533C136.752 16.4446 88.3326 49.8147 53.6538 94.3081C20.2838 138.147 0 192.455 0 251.998C0 323.318 28.7899 388.096 75.9006 435.206C123.011 482.317 187.788 511.107 259.109 511.107C319.306 511.107 374.923 490.169 419.416 455.49C464.564 420.157 497.28 369.775 511.02 312.195C514.292 302.38 509.057 293.22 499.897 291.257ZM399.787 428.009C361.836 458.107 313.417 476.428 260.417 476.428C198.257 476.428 141.986 450.91 101.419 410.342C60.8513 369.775 35.333 313.504 35.333 251.344C35.333 199.653 52.3452 152.542 81.7894 114.592C102.073 88.4192 127.591 66.8269 157.036 51.7776C153.764 58.9751 150.492 66.1725 147.875 74.0243C139.369 97.5797 135.443 122.444 135.443 148.616C135.443 210.776 160.962 267.702 201.529 308.269C242.097 348.837 299.022 374.355 361.182 374.355C388.663 374.355 414.836 369.775 439.045 360.614C447.552 357.343 456.058 354.071 463.909 350.145C448.206 380.244 426.613 407.071 399.787 428.009Z" fill="black"/>
</svg>
