<svg width="440" height="440" viewBox="0 0 440 440" fill="none" xmlns="http://www.w3.org/2000/svg">
<path d="M384 0H56C41.1479 0 26.9041 5.89998 16.402 16.402C5.89998 26.9041 0 41.1479 0 56V384C0 398.852 5.89998 413.096 16.402 423.598C26.9041 434.1 41.1479 440 56 440H216.67V256.924H180.055V183.694H216.367V150.6C216.367 120.648 230.635 73.854 293.426 73.854L349.991 74.081V136.822H308.913C302.234 136.822 292.73 140.148 292.73 154.414V183.699H350.925L344.245 256.929H289.9V440H384C398.852 440 413.096 434.1 423.598 423.598C434.1 413.096 440 398.852 440 384V56C440 41.1479 434.1 26.9041 423.598 16.402C413.096 5.89998 398.852 0 384 0Z" fill="black"/>
</svg>
