<svg width="512" height="512" viewBox="0 0 512 512" fill="none" xmlns="http://www.w3.org/2000/svg">
<path d="M32.0002 34.8374C-8.23448 76.6294 0.000181878 121.024 0.000181878 255.893C0.000181878 367.893 -19.5412 480.171 82.7309 506.603C114.667 514.816 397.632 514.816 429.526 506.56C472.107 495.573 506.752 461.035 511.488 400.811C512.15 392.405 512.15 119.531 511.467 110.955C506.432 46.8054 466.944 9.83476 414.912 2.34676C402.987 0.618761 400.598 0.106761 339.414 9.45971e-05C122.39 0.106761 74.8162 -9.55724 32.0002 34.8374Z" fill="url(#paint0_linear_257_7)"/>
<path d="M255.957 66.9654C178.496 66.9654 104.939 60.0747 76.8428 132.181C65.2374 161.963 66.9228 200.64 66.9228 256.021C66.9228 304.619 65.3654 350.293 76.8428 379.84C104.875 451.989 179.029 445.077 255.915 445.077C330.091 445.077 406.571 452.8 435.008 379.84C446.635 349.76 444.928 311.659 444.928 256.021C444.928 182.165 449.003 134.485 413.184 98.6881C376.917 62.4214 327.872 66.9654 255.872 66.9654H255.957ZM239.019 101.035C400.597 100.779 421.163 82.8161 409.813 332.352C405.781 420.608 338.581 410.923 255.979 410.923C105.365 410.923 101.035 406.613 101.035 255.936C101.035 103.509 112.981 101.12 239.019 100.992V101.035ZM356.864 132.416C350.85 132.416 345.082 134.805 340.829 139.058C336.576 143.311 334.187 149.079 334.187 155.093C334.187 161.108 336.576 166.876 340.829 171.129C345.082 175.382 350.85 177.771 356.864 177.771C362.879 177.771 368.647 175.382 372.899 171.129C377.152 166.876 379.541 161.108 379.541 155.093C379.541 149.079 377.152 143.311 372.899 139.058C368.647 134.805 362.879 132.416 356.864 132.416ZM255.957 158.933C243.209 158.935 230.586 161.447 218.808 166.327C207.031 171.207 196.33 178.359 187.317 187.374C169.113 205.582 158.888 230.275 158.891 256.021C158.894 281.768 169.124 306.459 187.332 324.662C205.539 342.866 230.232 353.091 255.979 353.088C281.725 353.085 306.416 342.855 324.62 324.647C342.823 306.44 353.048 281.747 353.045 256C353.043 230.254 342.812 205.563 324.605 187.359C306.397 169.156 281.704 158.931 255.957 158.933ZM255.957 193.003C339.264 193.003 339.371 319.04 255.957 319.04C172.672 319.04 172.544 193.003 255.957 193.003Z" fill="white"/>
<defs>
<linearGradient id="paint0_linear_257_7" x1="32.9819" y1="479.298" x2="508.832" y2="67.4556" gradientUnits="userSpaceOnUse">
<stop stop-color="#FFDD55"/>
<stop offset="0.5" stop-color="#FF543E"/>
<stop offset="1" stop-color="#C837AB"/>
</linearGradient>
</defs>
</svg>
