<svg width="512" height="512" viewBox="0 0 512 512" fill="none" xmlns="http://www.w3.org/2000/svg">
<g clip-path="url(#clip0_257_14)">
<path d="M442.182 0H69.8182C31.2587 0 0 31.2587 0 69.8182V442.182C0 480.741 31.2587 512 69.8182 512H442.182C480.741 512 512 480.741 512 442.182V69.8182C512 31.2587 480.741 0 442.182 0Z" fill="#D50012"/>
<path d="M263.505 96C176.233 96 132.131 158.604 132.131 210.822C132.131 242.444 144.087 270.545 169.775 281.047C170.669 281.519 171.664 281.769 172.675 281.776C173.686 281.783 174.684 281.547 175.585 281.088C176.486 280.629 177.263 279.96 177.852 279.138C178.441 278.316 178.823 277.364 178.967 276.364C179.84 273.135 181.876 264.989 182.72 261.615C183.971 256.989 183.476 255.389 180.073 251.375C172.684 242.647 167.942 231.331 167.942 215.331C167.942 168.785 202.851 127.273 258.444 127.273C307.898 127.273 334.924 157.44 334.924 197.731C334.924 250.735 311.476 295.447 276.742 295.447C257.513 295.447 243.113 279.535 247.651 260.044C253.178 236.771 263.884 211.636 263.884 194.822C263.884 179.782 255.796 167.215 239.098 167.215C219.433 167.215 203.636 187.578 203.636 214.807C203.496 224.807 205.479 234.722 209.455 243.898C209.455 243.898 189.324 329.105 185.804 344.058C178.793 373.76 184.756 410.211 185.251 413.876C185.328 414.349 185.542 414.788 185.867 415.14C186.192 415.492 186.613 415.74 187.077 415.855C187.542 415.97 188.03 415.945 188.481 415.785C188.933 415.625 189.326 415.335 189.615 414.953C191.447 412.567 214.836 383.68 222.807 354.793C225.047 346.618 235.724 304.262 235.724 304.262C242.124 316.451 260.771 327.185 280.64 327.185C339.724 327.185 379.811 273.309 379.811 201.222C379.869 146.764 333.673 96 263.505 96Z" fill="white"/>
</g>
<defs>
<clipPath id="clip0_257_14">
<rect width="512" height="512" fill="white"/>
</clipPath>
</defs>
</svg>
