<svg width="480" height="332" viewBox="0 0 480 332" fill="none" xmlns="http://www.w3.org/2000/svg">
<path d="M470.11 48.2764C464.578 27.713 448.365 11.5032 427.804 5.96597C390.243 -4.31128 239.994 -4.31128 239.994 -4.31128C239.994 -4.31128 89.751 -4.31128 52.1895 5.57672C32.0242 11.108 15.4162 27.7167 9.885 48.2764C0 85.8349 0 163.728 0 163.728C0 163.728 0 242.012 9.885 279.177C15.4215 299.738 31.629 315.948 52.1925 321.485C90.1462 331.765 240 331.765 240 331.765C240 331.765 390.243 331.765 427.804 321.877C448.368 316.343 464.578 300.133 470.115 279.573C479.997 242.011 479.997 164.122 479.997 164.122C479.997 164.122 480.392 85.8342 470.11 48.2764ZM192.157 235.686V91.7667L317.097 163.726L192.157 235.686Z" fill="black"/>
</svg>
