<svg width="235" height="161" viewBox="0 0 235 161" fill="none" xmlns="http://www.w3.org/2000/svg">
<path d="M51.6101 128.672C102.554 148.553 145.908 152.425 195.036 121.48C194.676 122.02 184.958 136.417 159.402 143.796C164.801 151.175 172.18 159.633 172.18 159.633C188.557 159.633 204.575 154.954 218.432 145.955C229.23 138.756 235.349 126.339 234.089 113.381C231.93 91.2446 226.71 69.6483 218.612 48.9522C208.354 21.957 183.698 3.2399 155.083 0.540163C152.563 0.360109 150.764 0.36011 149.684 0.36011L146.805 3.23937C179.739 12.5979 196.116 27.1753 196.476 27.7155C145.904 2.15957 86.1548 1.8 35.2231 26.6357C35.2231 26.6357 51.4204 10.6184 87.2341 2.15958L85.0745 0C81.295 0 77.6955 0.360107 73.9165 0.899734C47.4609 5.39894 25.3249 23.5758 15.7863 48.5916C7.5076 70.1879 2.10866 92.864 0.129134 115.9C-0.950655 128.138 4.8084 140.196 14.8866 147.215C28.2042 156.034 44.0414 160.713 60.0588 160.713C60.0588 160.713 66.5375 152.254 73.0168 144.695C48.7207 137.497 38.8226 123.099 38.6425 122.559L43.2149 124.894C45.9485 126.293 48.7504 127.553 51.6101 128.672ZM79.8556 113.021C68.1574 112.661 58.979 102.763 59.3391 90.8845C59.6992 79.7265 68.6976 70.7281 79.8556 70.3679C91.5538 70.7281 100.732 80.6262 100.372 92.5044C99.832 103.663 91.0136 112.661 79.8556 113.021ZM153.283 113.021C141.585 112.661 132.406 102.763 132.766 90.8845C133.126 79.7265 142.125 70.7281 153.283 70.3679C164.981 70.7281 174.16 80.6262 173.799 92.5044C173.44 103.663 164.441 112.661 153.283 113.021Z" fill="white"/>
</svg>
