<svg width="109" height="109" viewBox="0 0 109 109" fill="none" xmlns="http://www.w3.org/2000/svg">
<path d="M63.3964 49.7731C62.8446 49.7741 62.2979 49.6658 61.7881 49.4546C61.2783 49.2433 60.8153 48.9331 60.426 48.542C53.8737 41.9898 43.2124 41.9877 36.6581 48.542C36.2705 48.9433 35.8069 49.2634 35.2943 49.4836C34.7817 49.7038 34.2304 49.8197 33.6725 49.8245C33.1146 49.8294 32.5614 49.7231 32.045 49.5118C31.5287 49.3006 31.0596 48.9886 30.6651 48.5941C30.2706 48.1996 29.9586 47.7305 29.7474 47.2142C29.5361 46.6978 29.4298 46.1446 29.4347 45.5867C29.4395 45.0288 29.5554 44.4775 29.7756 43.9649C29.9958 43.4523 30.3159 42.9887 30.7172 42.6011C40.5466 32.7696 56.5396 32.7717 66.3669 42.6011C66.9543 43.1887 67.3543 43.9372 67.5164 44.7521C67.6784 45.567 67.5952 46.4117 67.2773 47.1793C66.9593 47.9469 66.421 48.603 65.7302 49.0647C65.0394 49.5264 64.2273 49.7729 63.3964 49.7731ZM60.426 73.7405C53.9704 73.7405 47.5148 71.2826 42.6011 66.369C42.1998 65.9814 41.8798 65.5178 41.6596 65.0052C41.4394 64.4926 41.3235 63.9413 41.3186 63.3834C41.3138 62.8255 41.4201 62.2723 41.6313 61.7559C41.8426 61.2396 42.1545 60.7705 42.549 60.376C42.9435 59.9815 43.4126 59.6695 43.929 59.4583C44.4453 59.247 44.9986 59.1407 45.5565 59.1456C46.1143 59.1504 46.6656 59.2663 47.1782 59.4865C47.6908 59.7067 48.1545 60.0268 48.542 60.4281C55.0943 66.9803 65.7556 66.9824 72.3099 60.4281C72.6975 60.0268 73.1611 59.7067 73.6737 59.4865C74.1863 59.2663 74.7376 59.1504 75.2955 59.1456C75.8534 59.1407 76.4066 59.247 76.923 59.4583C77.4393 59.6695 77.9084 59.9815 78.3029 60.376C78.6974 60.7705 79.0094 61.2396 79.2206 61.7559C79.4319 62.2723 79.5382 62.8255 79.5333 63.3834C79.5285 63.9413 79.4126 64.4926 79.1924 65.0052C78.9722 65.5178 78.6521 65.9814 78.2508 66.369C75.9114 68.7108 73.1325 70.5675 70.0736 71.8325C67.0147 73.0975 63.7361 73.7459 60.426 73.7405Z" fill="white"/>
<path d="M75.2783 67.5979C74.4474 67.5977 73.6353 67.3512 72.9445 66.8896C72.2538 66.4279 71.7154 65.7718 71.3974 65.0041C71.0795 64.2365 70.9963 63.3919 71.1584 62.577C71.3204 61.7621 71.7204 61.0135 72.3078 60.426L95.7774 36.9564C96.165 36.5551 96.6286 36.235 97.1412 36.0148C97.6538 35.7946 98.2051 35.6787 98.763 35.6739C99.3208 35.669 99.8741 35.7753 100.39 35.9866C100.907 36.1978 101.376 36.5098 101.77 36.9043C102.165 37.2988 102.477 37.7679 102.688 38.2843C102.899 38.8006 103.006 39.3539 103.001 39.9117C102.996 40.4696 102.88 41.0209 102.66 41.5335C102.44 42.0461 102.12 42.5097 101.718 42.8973L78.2487 66.3669C77.8594 66.758 77.3964 67.0681 76.8866 67.2794C76.3768 67.4907 75.8301 67.599 75.2783 67.5979ZM39.9269 102.949C39.096 102.949 38.2839 102.703 37.5931 102.241C36.9023 101.779 36.364 101.123 36.046 100.356C35.7281 99.5879 35.6449 98.7433 35.8069 97.9284C35.969 97.1135 36.369 96.365 36.9564 95.7774L50.0756 82.6582C50.4632 82.2569 50.9268 81.9368 51.4394 81.7166C51.952 81.4964 52.5033 81.3805 53.0612 81.3757C53.619 81.3708 54.1723 81.4771 54.6886 81.6884C55.205 81.8997 55.6741 82.2116 56.0686 82.6061C56.4631 83.0006 56.775 83.4697 56.9863 83.9861C57.1976 84.5024 57.3039 85.0557 57.299 85.6135C57.2942 86.1714 57.1783 86.7227 56.9581 87.2353C56.7379 87.7479 56.4178 88.2115 56.0165 88.5991L42.8973 101.718C42.508 102.109 42.045 102.42 41.5352 102.631C41.0254 102.842 40.4787 102.95 39.9269 102.949ZM10.2181 73.2405C9.38721 73.2404 8.57507 72.9939 7.8843 72.5322C7.19353 72.0705 6.65515 71.4144 6.33723 70.6468C6.0193 69.8791 5.9361 69.0345 6.09814 68.2196C6.26018 67.4047 6.66019 66.6562 7.2476 66.0686L30.7172 42.6011C31.1048 42.1998 31.5684 41.8797 32.081 41.6595C32.5936 41.4393 33.1449 41.3234 33.7028 41.3186C34.2606 41.3137 34.8139 41.4201 35.3302 41.6313C35.8466 41.8426 36.3157 42.1545 36.7102 42.549C37.1047 42.9435 37.4166 43.4126 37.6279 43.929C37.8391 44.4453 37.9455 44.9986 37.9406 45.5564C37.9358 46.1143 37.8199 46.6656 37.5997 47.1782C37.3795 47.6908 37.0594 48.1544 36.6581 48.542L13.1885 72.0095C12.3671 72.8288 11.2915 73.2405 10.2181 73.2405ZM55.9199 27.5408C55.089 27.5406 54.2769 27.2941 53.5861 26.8325C52.8953 26.3708 52.357 25.7147 52.039 24.9471C51.7211 24.1794 51.6379 23.3348 51.8 22.5199C51.962 21.705 52.362 20.9565 52.9494 20.3689L66.0686 7.24759C66.8567 6.45949 67.9256 6.01675 69.0401 6.01675C70.1546 6.01675 71.2235 6.45949 72.0116 7.24759C72.7997 8.03568 73.2424 9.10456 73.2424 10.2191C73.2424 11.3336 72.7997 12.4025 72.0116 13.1906L58.8924 26.3119C58.1034 27.099 57.0344 27.541 55.9199 27.5408Z" fill="white"/>
<path d="M25.0724 108.966C18.5748 108.966 12.0772 106.55 7.24759 101.718C-2.41586 92.0549 -2.41586 75.7299 7.24759 66.0665C7.63516 65.6652 8.09877 65.3451 8.61137 65.1249C9.12397 64.9047 9.67529 64.7888 10.2332 64.784C10.791 64.7791 11.3443 64.8854 11.8606 65.0967C12.377 65.3079 12.8461 65.6199 13.2406 66.0144C13.6351 66.4089 13.947 66.878 14.1583 67.3943C14.3696 67.9107 14.4759 68.464 14.471 69.0218C14.4662 69.5797 14.3503 70.131 14.1301 70.6436C13.9099 71.1562 13.5898 71.6198 13.1885 72.0074C6.74761 78.4483 6.74761 89.3344 13.1885 95.7753C19.6294 102.216 30.5155 102.216 36.9564 95.7753C37.344 95.374 37.8076 95.0539 38.3202 94.8337C38.8328 94.6135 39.3841 94.4976 39.942 94.4928C40.4998 94.4879 41.0531 94.5942 41.5694 94.8055C42.0858 95.0167 42.5549 95.3287 42.9494 95.7232C43.3439 96.1177 43.6559 96.5868 43.8671 97.1032C44.0784 97.6195 44.1847 98.1727 44.1798 98.7306C44.175 99.2885 44.0591 99.8398 43.8389 100.352C43.6187 100.865 43.2986 101.329 42.8973 101.716C38.0677 106.55 31.5701 108.966 25.0724 108.966ZM98.7478 44.1283C97.917 44.1282 97.1049 43.8817 96.4141 43.42C95.7233 42.9583 95.1849 42.3022 94.867 41.5346C94.5491 40.767 94.4659 39.9223 94.6279 39.1074C94.79 38.2925 95.19 37.544 95.7774 36.9564C102.218 30.5155 102.218 19.6294 95.7774 13.1885C89.3365 6.74761 78.4504 6.74761 72.0095 13.1885C71.6219 13.5898 71.1583 13.9099 70.6457 14.1301C70.1331 14.3503 69.5818 14.4662 69.0239 14.471C68.466 14.4759 67.9128 14.3696 67.3964 14.1583C66.8801 13.947 66.411 13.6351 66.0165 13.2406C65.622 12.8461 65.31 12.377 65.0988 11.8606C64.8875 11.3443 64.7812 10.791 64.7861 10.2332C64.7909 9.67529 64.9068 9.12397 65.127 8.61137C65.3472 8.09877 65.6673 7.63516 66.0686 7.24759C75.732 -2.41586 92.057 -2.41586 101.72 7.24759C111.384 16.911 111.384 33.236 101.72 42.8994C100.899 43.7187 99.8234 44.1283 98.7478 44.1283Z" fill="white"/>
</svg>
