<svg width="130" height="130" viewBox="0 0 130 130" fill="none" xmlns="http://www.w3.org/2000/svg">
<path d="M117 0H13C5.85 0 0 5.85 0 13V117C0 124.15 5.85 130 13 130H117C124.15 130 130 124.15 130 117V13C130 5.85 124.15 0 117 0ZM39 110.5H19.5V52H39V110.5ZM29.25 40.95C22.75 40.95 17.55 35.75 17.55 29.25C17.55 22.75 22.75 17.55 29.25 17.55C35.75 17.55 40.95 22.75 40.95 29.25C40.95 35.75 35.75 40.95 29.25 40.95ZM110.5 110.5H91V76.05C91 70.8503 86.45 66.3 81.25 66.3C76.05 66.3 71.5 70.8503 71.5 76.05V110.5H52V52H71.5V59.8C74.75 54.6 81.9 50.7 87.75 50.7C100.1 50.7 110.5 61.1 110.5 73.45V110.5Z" fill="white"/>
</svg>
