<svg width="256" height="246" viewBox="0 0 256 246" fill="none" xmlns="http://www.w3.org/2000/svg">
<path d="M227.467 94.2853C219.381 94.2853 212.267 97.688 207.029 102.989C187.776 89.464 161.813 80.76 133.045 79.832L147.989 11.5013L195.573 22.3387C195.573 34.1573 205.067 43.8107 216.715 43.8107C228.587 43.8107 238.133 33.9013 238.133 22.072C238.133 10.2427 228.651 0.333328 216.725 0.333328C208.416 0.333328 201.248 5.42133 197.675 12.376L145.12 0.557329C142.475 -0.157338 139.883 1.76266 139.179 4.45066L122.773 79.7787C94.2293 80.984 68.544 89.6773 49.2267 103.213C46.5626 100.395 43.3515 98.1489 39.7898 96.6137C36.228 95.0786 32.3905 94.2863 28.512 94.2853C-1.48267 94.2853 -11.3067 135.128 16.16 149.091C15.1977 153.534 14.7255 158.07 14.752 162.616C14.752 208.493 65.6853 245.667 128.224 245.667C191.029 245.667 241.963 208.493 241.963 162.616C241.963 158.019 241.483 153.197 240.299 148.867C267.211 134.851 257.301 94.3067 227.467 94.2853ZM59.744 151.992C59.744 139.949 69.2373 130.253 81.1627 130.253C92.8107 130.253 102.315 139.885 102.315 151.992C102.315 163.821 92.8213 173.464 81.1627 173.464C78.345 173.465 75.5548 172.911 72.9521 171.831C70.3493 170.752 67.9852 169.17 65.9953 167.175C64.0055 165.18 62.4289 162.812 61.3562 160.207C60.2834 157.601 59.7356 154.81 59.744 151.992ZM175.36 203.171C155.723 223.096 100.309 223.096 80.6613 203.171C78.496 201.251 78.496 197.859 80.6613 195.672C81.6164 194.747 82.8941 194.229 84.224 194.229C85.5539 194.229 86.8315 194.747 87.7867 195.672C102.784 211.277 152.533 211.544 168.181 195.672C169.136 194.747 170.414 194.229 171.744 194.229C173.074 194.229 174.352 194.747 175.307 195.672C177.515 197.869 177.515 201.261 175.36 203.171ZM174.923 173.507C163.275 173.507 153.781 163.875 153.781 152.056C153.781 140.013 163.275 130.317 174.923 130.317C186.795 130.317 196.341 139.949 196.341 152.056C196.33 157.736 194.071 163.181 190.057 167.2C186.044 171.22 180.603 173.487 174.923 173.507Z" fill="white"/>
</svg>
